<?xml version="1.0" encoding="UTF-8"?>
<svg width="320pt" height="144.25pt" version="1.1" viewBox="0 0 320.00001 144.25186" xmlns="http://www.w3.org/2000/svg">
 <path transform="scale(.8)" d="m228.39 10c6.4056 7.8032 25.008 30.73 40.008 51.838-5.8534 2.6562 6.6734 17.866-1.1934 20.633-9.1887 3.2318-20.152-9.8959-30.949-14.342-7.5575 8.2342-33.286 11.525-45.572 12.15-0.228-0.33248-1.1711-1.7168-1.168-1.7109 3.5324-1.8518 9.7948-7.5946 14.426-11.646 0 0 4.064-6.685 4.125-6.7461 0.75437-0.75438 2.3214-4.3873 4.0996-9.1211-1.4792 10.822-3.1944 23.66-1.6738 23.66 2.399 0 7.9277-33.969 7.9277-38.838 0-1.1566 0.327-2.4285 0.7871-3.6934-0.80952 13.294 0.38558 31.764 2.1543 33.533 0.061 0.0615 2.6588 1.477 0.77539-0.074219 1.1956-0.29268 3.358-1.084 3.668-1.084 0.57395 0 2.232 6.7797 3.582 5.4297 1.3098-1.3098 3.7034-6.0575 5.7246-6.5625 0.70985-0.17775 1.1957 0.001213 1.5645 0.55469 4.5341 6.8016 4.5296 0.36927 7.3848-2.4863 0.32933-0.3293 1.6892-6.7294-4.2949-19.117 8.9465 7.008 18.637 14.7 18.637 11.633 0-5.2211-28.614-40.133-32.561-40.133-2.3892 0-4.4876 1.5704-5.7852 3.9531-0.26352 0.196-0.57234 0.50105-0.93554 0.93555-21.161 25.324-39.429 36.78-41.67 38.752-6.5691-17.594-17.12-28.685-21.9-22.539-4.774 10.215-11.797 21.582-18.502 33.311-6.5892-13.595-15.177-30.143-17.936-30.652-0.16425-0.03025-1.5289-0.15549-2.5117 0.78711-3.8124 2.9103-16.053 28.69-17.518 32.955-0.87688 2.555 13.865-26.907 18.785-32.818 3.3224 1.7565 10.125 13.926 16.336 25.852-2.0421-2.8079-4.3267-5.2563-7.1035-7.0664-2.6243-1.71-3.3258-0.46616-1.3164 4.0254 1.476 3.2996 2.0069 7.334 2.0176 11.252-2.7662-4.9328-5.9594-9.1282-10.24-11.918-2.6244-1.71-3.3278-0.46616-1.3184 4.0254 2.0626 4.6105 2.2656 10.64 1.7969 15.795-2.6405-5.8722-5.579-10.915-10.648-14.219-2.6243-1.71-3.3254-0.47792-1.3164 4.0137 3.9692 8.8716-0.57984 22.125-2.0059 25.027-0.3187 0.64802-0.47845 0.83923-0.76368 1.3789-5e-3 -4.6164-0.54134-17.504 0.84961-22.701 1.656-6.1894-12.327 17.384-14.896 22.613-2.3029 4.6858-3.6986 6.3622-4.0488 6.9062-0.42585-0.46087-3.4291-4.058-5.5898-4.7383-1.2582-1.6202-2.6719-3.4355-2.6719-3.4355-12.358-20.256-5.8712-1.1064-10.057-7.3848-1.0943-1.6415-1.9011-2.3192-2.5117-2.4512-1.0175-0.22025-1.4846 1.0824-1.7852 2.0195-0.79258 2.4691-5.3065 6.3339-2.7207 4.3945 2.9249-2.1938 2.0845-1.6807 3.6074-4.7266 0.3372-0.67442 2.4595 2.7506 2.9062 3.2871 3.4177 4.1008 2.0639 0.93451 3.1992-2.5742 0.4546 1.0652 0.91631 2.121 1.4414 3.1523 0.65748 1.2917 4.2528 5.2573 7.041 7.9766-0.106 0.109-0.25374 0.34179-0.36914 0.48047-2.5444-2.1371-6.0084-5.6615-7.2871-4.3828-0.9151 0.9151 3.0867 3.5026 6.623 5.2441-1.8373 2.5479-4.3974 6.9304-6.6602 7.4961-0.96158 0.24025-1.6314-0.02584-2.1309-0.77539-6.1417-9.2124-4.4531-0.18563-8.3203 3.6816-0.66572 0.66613-1.6405-2.7266-1.748-2.9062-3.6879-6.1464-7.3561-0.23332-7.8418 3.9395-0.57948-0.72955-4.0391-5.1816-4.0391-5.1816-12.358-20.257-5.8712-1.1087-10.057-7.3867-1.0943-1.6415-1.9011-2.3172-2.5117-2.4492-1.0175-0.21975-1.4846 1.0824-1.7852 2.0195-0.7922 2.4692-7.9393 12.414-5.3535 10.475 2.9249-2.1938 4.7173-7.7627 6.2402-10.809 0.3372-0.6744 2.4592 2.751 2.9062 3.2871 3.4173 4.1008 2.0643 0.93643 3.1992-2.5723 0.45458 1.0652 0.91668 2.121 1.4414 3.1523 0.85008 1.6702 6.656 7.8695 9.207 9.9707-1.6194 0.39667-4.5523 1.4648-4.9727 1.4648-0.7776 0-3.0214-9.1899-4.8496-7.3613-1.7742 1.7738-5.0063 8.2161-7.7441 8.9004-0.96118 0.24025-1.6294-0.01544-2.1289-0.76367-6.1417-9.2128-6.1168-0.49413-9.9844 3.373-0.66572 0.66612-8.1466 2.9157 8.1367 1.3672 2.7792-0.26432 5.1041-0.54029 7.498-0.8125-8.9516 2.4408-17.377 5.2225-14.23 5.4766 0.7776 0.06275 3.0194 0.18205 4.3457 0.2832-3.4587 0.33128-5.7805 0.62689-5.0723 0.77539 12.864 2.7016 26.125 4.9282 32.744 15.684 5.8478 9.5023 16.235-9.6965 29.988-8.5313-13.783 8.7479-20.919 13.445-24.088 15.775-0.81252 0.0555-1.6438 0.08278-2.4961 0.08203-3.5288-1.3289-6.7848-2.1725-9.3867-2.2656-1.4044-0.05025-2.6172 0.11785-3.582 0.54492-5.1697-1.189-11.22-3.0075-18.607-5.5156-9.4101-3.1951-17.43-22.344-14.242-12.967 4.0867 12.02 12.712 18.247 30.383 22.598-0.00125 0.05975-0.007813 0.11673-0.007813 0.17773 0 7.075-22.623 23.151-39.848 0.29492 1.6258 32.11 4.9307 9.8783 80.262 20.902 2.0228 0.29605 3.5157 0.32115 4.5547 0.12695 29.576 2.9548 32.445 1.4864 121.89-0.26758 11.539-0.226-20.624-0.32621-55.127-0.32031-27.474 5e-3 -56.097 0.08236-65.674 0.22461 3.643-2.0676-5.7922-10.283-17.051-16.898 4.0855-0.30372 7.243-1.4134 9.6621-2.9531 4.0478-0.03625 8.5404-1.394 13.018-3.4961 2.086-0.9794 4.1654-2.1231 6.1973-3.3652-0.16375 0.45792-0.31856 0.89692-0.49024 1.3691 13.4-19.857 18.394-19.248 28.627 0 0.40723-6.8568-4.15-13.675-9.3144-17.211 2.0027-2.5014 2.8472-4.3546 1.9824-4.8867-1.4686-0.90365-4.9958-1.4984-9.6387-1.9199 3.4567-0.59957 6.5068-1.4754 8.6777-2.7324 1.6454-0.95253-1.4018-2.5717-4.4922-3.6191 0.77957-1.1613 1.6722-2.7661 2.707-5.1348 3.8624-8.8405 22.851-11.73 20.078-11.73-2.2493 4e-4 -16.594 4.24-21.986 8.2344-0.74963 0.3061-2.3262 1.8556-3.0156 1.2812-4.4017-3.6678-9.7978 2.8046-16.113 0.94727-4.8626-1.43-6.0158-0.04319-5.0117 1.0098 1.6261 1.7049 15.686 3.8116 21.754 0.80078-0.3829 1.4122-1.2756 2.6151-2.1426 3.6562-0.65825-0.04925-1.1854-0.02329-1.293 0.22071-0.26827 0.60745-0.28616 1.4539-0.49219 2.0566-0.03375 0.0635-0.02957 0.11612-0.04883 0.17187-0.43567 0.98168-1.6163 1.0299-6.0566-2.6348-3.5985-2.9698-20.121 4.3152-24.055 6.832-1.8645-1.3267-4.6573-2.6174-4.998-1.8457-0.2663 0.6027-0.29513 1.434-0.50391 2.0312-0.87492 0.0225-1.7356 0.0353-2.6113 0.06055-0.82015-0.46602-1.8372-1.1538-3.2734-2.3262 8.0739-2.3372 15.86-4.816 16.127-5.7988 2.6476-4.8079-3.4098-3.2363-3.4102-3.2363-2.245 0.06-4.1833 1.561-8.6426 4.209-7.132 4.2343-5.1879 2.625-11.018 3.3242-7.398 0.8875-5.2854-2.5137-8.1855-2.9785 2.0374-0.76382 6.0566-2.401 14.082-3.1641 12.23-1.1633 19.052-2.9065 19.955-5.4414 6.7791 1.7786 49.515-7.666 52.713-8.6914 0.49635-0.15875 0.03302-0.11177-1.6621 0.20898-12.838 2.429-44.633 8.8324-51.357 6.7832-0.173-0.31277-0.36064-0.62613-0.67774-0.95898 0.39115-0.0945 1.2088-0.3457 2.6211-0.3457 8.016 0 1.1639 2.7032 6.7715-2.9043 1.2283-1.2283 3.4418 0.86371 5.3047 1.6484-0.27062 0.40495-0.06515 0.35954 0.71485 0.18554 0.45222 0.0885 0.87279 0.08413 1.2305-0.17187 0.25843-0.0225 0.47944-0.05078 0.78907-0.05078 8.016 0 1.162 2.7032 6.7695-2.9043 2.3915-2.3919 18.989 5.4895 14.293-5.0469 4.8252 0.2465 14.311 3.5402 12.42-3.0781 2.7406 0.43098 5.8495 1.02 7.8184 0.54102 3.3279 2.3648 6.7367 4.2824 7.7188 3.3496 1.3681-1.3 7.5136 0.057113 15.029 2.0547-10.567-9.201-16.236-14.277-22.762-13.664-0.12575-0.29978-0.01671-0.10038-0.22071-0.56641 3.3405-1.281 7.2899 0.03805 10.783 2.0312 2.1276 1.8448 4.381 3.5469 6.5488 4.9004 7.0788 7.19 56.289 7.1271 82.615 9.7129 3.9066 0.15525 12.287 0.44882 12.875-0.16016-25.016-1.8796-62.089-3.4202-57.562-5.2578-0.03348-0.048859-1.0393-1.7845-2.002-3.4453-5.4354-0.9768-7.5479-2.4327-2.4785-4.5176-0.16825-0.24575-0.16541-0.25072-0.33203-0.49414 21.81 0.11825 35.325 2.1185 64.492 3.5469-24.062-6.2709-55.459-4.2953-65.145-4.4824-0.47388-0.69213-0.56881-0.84412-0.98438-1.4512 7.886-0.154 27.08-0.49496 27.217-0.49219 10.462-0.71302 28.869-0.29071 45.463 5.8711 0.56605 0.21025 2.7235 1.1603 3.0391 0.91016-1.775 5.0044-2.5396 10.712-2.4727 11.154 0.51998 3.4256 1.6256 4.6012 7.8398 5.0723 9.1754 1.9972 27.023 4.8314 39.664 1.1309 16.23-4.7516 16.154 9.6654 19.117 6.1562 3.1325-3.7096-7.493-10.449-4.4668-15.289 0.09225-0.147 0.91234-1.2453 1.0703-1.4785 1.5245 8.0641 8.4086 14.219 12.324 14.219 4.6404 0 1.1456-13.867-0.13867-26.061 0.56333-0.31672 1.0056-0.46986 1.0371-0.14844 7.9534 6.6534 17.12 21.113 20.988 21.113 4.6326 0 17.607 5.0908 10.646 0.55273 3.632-5.0545-22.209-41.221-21.492-42.617 1.6072-3.1404 33.786 47.012 32.979 43.578-23.005-97.733-48.341-30.441-64.604-10.514 7.1624-16.186 10.597-14.253 19.07-32.283-2.726-13.356-31.483-45.898-37.389-45.898-6.3623-5e-5 -39.202 29.845-38.666 30.648 8.4966-0.18875 15.005-9.5141 26.404-18.449-8.3599 9.4239-18.548 22.898-20.422 22.898-2.9974 0 23.996 34.37 28.301 48.488-0.6433 0.0125-0.70894 0.01039-1.3652 0.02539-1.8404-3.6494-6.9633-11.747-7.0059-11.768-4.41-2.0752-19.057 9.8688-19.057 5.0098 0-4.4581 19.371-3.2843 7.1152-11.818-0.85283-1.9787-11.402-11.267-6.9043-14.723 3.2948 4.7551 7.3917 8.6209 11.361 11.953-19.876-29.946-33.85-58.876-53.955-70.439zm-31.252 80.596c10.61 1.9067 33.869 1.974 41.531 1.2754-7.6471-0.041103-39.447-2.4644-43.012-3.8242 0.02731 0.039862 0.76835 1.3203 1.4805 2.5488zm41.531 1.2754c1.2717 0.006835 1.9508-0.044263 1.6406-0.18555-0.40447 0.068368-1.0013 0.12725-1.6406 0.18555zm-12.459-71.445c1.1617 0 6.5625 15.134 6.5625 18.688 0 3.5536 2.2691 24.621 1.1074 24.621s-5.3184-21.067-5.3184-24.621c0-3.5536-3.5132-18.687-2.3516-18.688zm78.244 0.68945c3.9428 0 21.432 28.62 27.812 40.924-8.0436-6.6861-30.582-31.385-30.582-38.707 0-0.4613-0.07737-0.79643-0.17187-1.084 1.216-0.68622 2.2473-1.1324 2.9414-1.1328zm-81.852 0.7793c0.01 5e-3 0.01367 0.014953 0.01367 0.033203 0 1.099-14.827 23.389-18.686 30.383-3.8026 6.8921-9.7689 2.4161-3.5586-4.2109 2.8016-2.9897 21.642-26.519 22.23-26.205zm77.445 1.2891c0.12025 0.034 0.16016 1.0022 0.16016 3.3496 0 10.636 13.025 32.929 15.621 34.566-4.1508 14.458-11.227 47.253-11.227 35.01 0-3.4284-0.57015-50.596-5.1582-55.297-3.4268-3.5107-14.677 35.345-17.123 29.496-6.2414-14.925 4.2281-29.754 8.5176-29.754 6.6798 0 8.6882-17.518 9.209-17.371zm-140.14 12.939c5.1672-0.3565 24.071 34.388 28.646 41.521-0.12675 0.28992-1.5653 1.264-2.6348 1.9707-4.7504-5.4267-11.099-10.751-13.369-10.92-4.5593-0.34075-13.394-12.434-16.236-12.299-0.1895 0.01-0.34732 0.072266-0.48047 0.19727-1.45 1.3594 12.582 18.862 10.98 20.559-18.942-17.672-21.727-8.8551-21.727-6.1543 0 2.633 2.021 5.9791 4.9238 9.2695-2.9517-1.2842-5.4468-1.353-7.5957-0.62891-0.21675-0.47508-0.60776-1.2726-0.84961-1.7969-0.80363-1.7857-1.623-3.5246-2.4629-5.207-0.5393-1.1376-0.93687-1.9917-1.5254-3.2129 7.1281-10.814 18.319-28.119 21.494-32.746 0.214-0.35415 0.49126-0.52871 0.83594-0.55273zm25.568 23.67c0.15225-0.00125 0.31471 0.0185 0.49218 0.0625 2.0212 0.5054 4.4031 5.2644 5.7129 6.5742 1.35 1.35 3.0077-5.4277 3.582-5.4277 0.31002 0 2.4724 0.78936 3.668 1.082-1.8834 1.5517-6.167 6.128-6.7949 7.3613-0.06625 0.13-2.3785 5.4455-3.4473 7.8906-2.2233-3.6781-7.0217-12.824-4.2949-16.914 0.27655-0.4151 0.62546-0.62426 1.082-0.62891zm-1.957 28.328c0.096 0.00125 0.18706-0.00125 0.28321 0 0.015 0.0175 0.03358 0.032328 0.04883 0.048828-0.122-0.01-0.20716-0.038078-0.33204-0.048828zm-124.37 4.459l0.001954 0.001953c-0.0535 0.0025-0.10761 0.009532-0.16211 0.019531-1.4528 0.2982-3.2844 3.8849-7.5215 15.191-1.1601 3.0955 5.4276-12.616 7.2129-13.764 0.50068-0.32185 4.7031 5.1324 4.7031 5.1328 0 0 1.058-1.185-1.7617-4.5176-0.9698-1.1463-1.6706-2.0975-2.4727-2.0645zm87.389 2.0039c-2.6898 1.675-9.6016 6.038-9.6016 7.373s0.41633 2.7038 1.4531 0.11133c1.0632-2.6582 7.3925-5.1189 8.1484-7.4844zm1.2812 0.38086c-2.6897 1.675-5.5645 7.9345-5.5645 9.2695 0 1.3354 0.4163 2.7034 1.4531 0.11132 1.0632-2.6582 3.3554-7.0153 4.1113-9.3809zm19.486 0.24609c3.2314 4.798 20.634 5.7734 31.428 5.7734s48.367 6.2657 48.367 4.998c-20.268-2.154-36.982-6.7578-47.775-6.7578s-13.22-0.29265-32.02-4.0137zm-17.395 0.71484c0.39313 3.2121-1.4883 7.3681-1.4883 8.7031 0 1.3354 0.41437 2.7034 1.4512 0.11132 1.0632-2.6582 1.4138-5.8647 0.03711-8.8144zm13.775 1.0703c-0.06075 0.2911 0.16537 0.65148 0.48047 1.0352-0.14625-0.33915-0.37452-0.72158-0.48047-1.0352zm0.48047 1.0352c1.3685 3.1778 7.1757 11.291 11.658 14.414 7.0367 4.9024 15.897 10.433 21.703 2.8926-16.71 4.1512-31.884-15.509-33.361-17.307zm-10.746-0.074219c-0.11225 0.11075-1.261 5.6585 2.2031 9.1699 3.4638 3.5115 2.5225 15.068 2.6348 14.957 0.11275-0.11075 2.5658-12.959-0.89844-16.471-3.4642-3.5114-3.8272-7.7669-3.9394-7.6562zm5.0586 0.40625c-0.09975 0.14625-0.15459 6.4661 4.4082 9.5762 4.5632 3.11 6.0179 16.027 6.1172 15.881 0.09975-0.14575 0.01948-14.788-4.543-17.898-4.5629-3.11-5.8827-7.7043-5.9824-7.5586zm12.188 2.5723c-0.1315 0.0075-0.20898 0.06579-0.20898 0.18554 0 1.9157 17.489 12.027 25.1 12.027 7.6107 0 29.84-1.1136 29.84-3.0293s-21.983 2.2285-29.594 2.2285c-7.1352 0-23.162-11.548-25.137-11.412zm9.6133 1.9082c-0.2919 0.0125-0.45614 0.12809-0.46679 0.36914-0.08475 1.9263 9.1945 4.7276 20.102 5.207 10.907 0.47903 19.318-1.5444 19.402-3.4707 0.08475-1.9267-8.0148 3.5688-18.922 3.0898-9.5436-0.41955-18.074-5.2796-20.115-5.1953zm-44.957 0.41797c-0.10325-0.05275-10.951 2.0142-14.082 9.6387-1.3772 3.3543 2.6187 1.0556 4.2598-2.1777s9.9259-7.4085 9.8223-7.4609zm120.68 0.43164c-6.1283 7.5701 72.457 23.068 63.805 10.451-12.978 4.3257-52.269 1.0846-63.805-10.451zm-115.48 3.4707c-4.5546 6.3682 0.18855 6.4951-3.0039 10.107-2.3171 2.622-9.6462 8.8635-7.4844 9.0234 1.0494 0.078 0.58007-0.52724 7.8047-8.0879 5.2112-5.4539 0.41695-6.2083 2.6836-11.043zm83.686 1.207c-0.0175 0.0125 0.03294 0.0533 0.14844 0.12305 6.5963 3.9916 18.484 7.2613 33.408 9.873-20.726-5.0371-33.313-10.147-33.557-9.9961zm33.557 9.9961c26.439 6.4254 66.186 12.736 111.21 7.8418-37.921 0-80.912-2.5399-111.21-7.8418zm-108.5-9.1211c-0.13125 0-4.0371 2.604-4.0371 6.6953s-3.0238 12.656-2.8926 12.656c0.13075 0 4.7891-8.4419 4.7891-12.533 0-4.0913 2.2714-6.8184 2.1406-6.8184zm69.619 4.7676c-0.05575-0.0025-0.09473-0.00169-0.11523 0.00586-0.0425 0.0175-0.00443 0.05305 0.11132 0.12305 0.01786 0.00891 0.02906 0.01259 0.04688 0.02148-0.03186-0.05454-0.04621-0.10408-0.04297-0.15039zm0.04492 0.15235c0.31116 0.52673 2.3516 1.4581 5.3047 2.5879-1.6446-0.79055-3.2644-1.57-5.3047-2.5879zm5.3047 2.5879c13.685 6.5783 15.874 6.2283 34.924 11.053-12.049-3.4887-27.023-8.0302-34.924-11.053zm34.924 11.053c13.226 3.8295 22.721 6.3372 13.789 3.6445-5.5565-1.5315-9.9123-2.6627-13.789-3.6445zm-52.131-10.777c-0.02675-6.3e-4 -0.03267 0.01045-0.01367 0.0332 0.03625 0.046 0.1636 0.1433 0.39453 0.2832 0.8335 0.52137 1.677 1.0247 2.5215 1.5254-1.3305-0.98138-2.3008-1.6773-2.7559-1.8086-0.071-0.02-0.11973-0.03245-0.14648-0.0332zm2.9023 1.8418c4.462 3.2913 13.49 10.245 25.123 13.734 1.7152 0.51485 35.446 7.4257 31.52 6.6406-22.362-4.9419-40.525-10.818-56.643-20.375zm-40.207 7.1953c-17.071 0.27096-42.59 8.9076-42.59 10.705 0 2.1308 34.324-8.2246 49.979-8.2246 15.654 0 50.656 16.558 50.656 14.428 0-1.7903-33.992-11.999-49.646-16.102-2.3661-0.62007-5.2372-0.85682-8.3984-0.80664zm-147.76 2.2578c5.2376 4.3135 25.109 14.789 25.109 14.789s-15.748-13.768-25.109-14.789zm-21.691 4.2266c-0.16825-5e-3 -0.25977 0.1774-0.25977 0.5957 0 3.825 3.1756 11.238 7.5781 11.238s25.875 16.108 25.875 12.283-17.029-11.5-21.432-11.5c-3.921 0-10.393-12.57-11.762-12.617zm172.48 0.02344c-15.654 0-39.244 9.2798-39.244 11.41-4e-4 2.1303 22.58-9.7246 38.234-9.7246s38.248 10.181 38.248 8.0508c0-2.1304-21.584-9.7363-37.238-9.7363zm-54.719 2.3106c-5e-3 0.0025-0.00922 0.00953-0.01172 0.01953-0.047 0.10525-3.1704 15.745-3.252 15.979-0.10825 0.3108-3.7423-10.665-3.959-10.039-0.56212 1.6265-5.733 8.7056-6.5039 9.8965-1.2117 1.8716 9.7124 2.8195 7.584 3.4746-0.33482 0.10275-0.65702 0.13183-0.98437 0.17383 6.2607 10.028 25.178-3.4368 10.648-13.123-0.37225-0.24774-1.676 7.3008-2.1192 7.2129-0.0125 0.65107-1.0946-13.754-1.4004-13.592l-0.00195-0.00195zm125.59 3.4277c-9.9824 0.0225-19.387 20.992-26.43 29.621l-5.3711 7.5488c11.684-3.4201 11.629 6.9575 13.762 4.4316 2.2548-2.6704-5.3952-7.522-3.2168-11.006 0.06625-0.106 0.65804-0.89662 0.77149-1.0644 1.0975 5.8049 6.0541 10.236 8.8711 10.236 3.3428 0 0.82609-9.9835-0.09766-18.762 0.40535-0.22775 5.9178 8.0086 5.9395 8.2402 5.725 4.789 7.1298 6.8516 9.9141 6.8516 3.3358 0 12.677 3.6668 7.666 0.40039 2.6137-3.6387-10.332-18.062-9.8184-19.066 1.1566-2.2608 18.668 22.228 18.086 19.756-6.5984-28.032-13.464-37.203-20.076-37.188zm154.84 0.60547c-0.2803 5e-3 -0.60064 0.01375-0.96094 0.03125-74.779 8.5072-92.256 3.3802-124.33 0.02539-2.1492-0.221 36.839 6.3126 71.342 6.3066 33.426-5e-3 62.641-6.4831 53.951-6.3633zm-227.73 4.0566c-17.229 0-42.923 12.746-33.531 12.914 9.3924 0.1675 11.811-8.6339 28.842-11.238 20.34-3.1104 29.406 8.169 33.213 7.7168 4.5156-0.7528-11.295-9.3926-28.523-9.3926zm223.8 5c-0.08625 5e-3 -0.21711 0.01691-0.39648 0.03516-57.395 6.0468-98.426 3.6506-130.44 0.35742-3.2239-0.33168 47.035 5.6213 81.482 5.6894 11.124 0.0225 52.026-6.2403 49.354-6.082zm-236.89 2.9629c-0.13 0.0025-0.26759 0.00758-0.41406 0.01758-9.3743 0.60702-10.648 12.158-27.818 13.578-17.17 1.4205-29.78-5.9537-33.736-4.9531-4.4384 1.1223 12.029 8.4303 29.199 7.0098 16.902-1.3979 40.963-15.782 32.77-15.652zm26.223 0.39258c-3.1336-0.0175-9.6162 4.7656-11.105 4.7656-1.3827 0-8.6712-3.5194-8.5625-3.1172 2.0196 7.4756 15.268 4.178 20.076 0.97265 0.37777-0.25172 1.7998-1.5674 1.123-2.2441-0.2639-0.26382-0.80812-0.37288-1.5312-0.37695zm-134.62 1.1113c3.8556 0 10.607 5.5718 17.877 7.3438-4.0569-0.62238-11.519-1.6504-14.404-1.6504 2.4483 8.1614-3.2637 9.0975-3.2637 7.0605 0-2.0366-4.515-12.754-0.20898-12.754zm147.63 3.6699c-4.708-0.02-16.797 6.3786-32.895 5.0469-17.17-1.4205-12.633 0.63419 4.5371 2.0547 17.17 1.4205 33.638-5.8855 29.199-7.0078-0.24725-0.0625-0.52794-0.0925-0.84179-0.09375zm196.93 6.4121c-31.965 9.787-97.261 3.9194-130.44 0.35742-3.2235-0.33168 58.852 7.9812 93.297 7.377 19.239-0.3376 42.91-7.8474 37.143-7.7344z"/>
</svg>
