<?xml version="1.0" encoding="UTF-8" standalone="no"?>
<!DOCTYPE svg PUBLIC "-//W3C//DTD SVG 1.1//EN" "http://www.w3.org/Graphics/SVG/1.1/DTD/svg11.dtd">
<svg width="100%" height="100%" viewBox="0 0 976 597" version="1.1" xmlns="http://www.w3.org/2000/svg" xmlns:xlink="http://www.w3.org/1999/xlink" xml:space="preserve" xmlns:serif="http://www.serif.com/" style="fill-rule:evenodd;clip-rule:evenodd;stroke-linejoin:round;stroke-miterlimit:2;">
    <g transform="matrix(14.2975,0,0,14.2975,-5711.99,-9319.08)">
        <g>
            <g transform="matrix(1,0,0,1,414.815,664.218)">
                <path d="M0,16.358C0.013,16.308 0.027,16.267 0.04,16.249C0.05,16.245 0.053,16.228 0.063,16.218C0.04,16.267 0.022,16.314 0,16.358M49.487,14.024C49.571,14.034 49.652,14.045 49.729,14.048C49.621,14.004 49.51,13.959 49.389,13.914C49.066,13.553 48.734,13.189 48.392,12.821C46.257,10.519 44.989,9.354 44.625,9.354C44.047,9.354 41.617,11.999 40.087,13.736C39.789,13.304 39.497,12.877 39.228,12.484C38.495,11.399 37.912,10.545 37.622,10.218C36.795,9.274 34.324,5.514 33.67,3.361C32.991,1.129 30.1,-1.718 29.975,-1.838C29.942,-1.868 29.907,-1.894 29.862,-1.903C29.095,-2.078 28.803,-1.436 28.52,-0.816C28.397,-0.545 28.258,-0.241 28.069,0.045C27.725,0.575 24.76,3.338 22.939,5.002C22.47,4.421 21.88,3.803 21.802,3.556C21.694,3.223 22.03,3.258 22.353,3.303C22.675,3.338 22.933,3.379 22.933,3.136C22.933,2.889 22.89,2.724 22.89,2.724C22.89,2.724 22.577,2.782 22.312,2.587C22.05,2.389 21.989,2.146 21.705,2.146C21.42,2.146 21.322,2.077 21.352,1.784C21.382,1.486 21.285,0.926 21.853,1.252C22.42,1.574 22.89,1.554 22.922,1.299C22.949,1.046 23.097,0.567 22.694,0.264C22.295,-0.04 21.52,-1.316 21.672,-1.808C21.83,-2.298 22.205,-2.501 22.486,-2.258C22.774,-2.016 23.707,-1.581 23.625,-2.143C23.547,-2.701 21.98,-4.417 21.557,-4.723C21.138,-5.026 20.93,-5.515 20.94,-5.986C20.947,-6.461 20.775,-6.908 20.987,-6.846C21.205,-6.79 21.752,-6.136 21.872,-6.438C21.872,-6.438 21.98,-6.965 21.772,-7.123C21.567,-7.284 21.222,-7.391 21.222,-7.734C21.222,-8.076 21.085,-9.015 20.963,-9.401C20.833,-9.781 21.428,-12.951 20.459,-12.341C20.459,-12.341 19.929,-12.048 20.011,-11.558C20.087,-11.065 20.17,-11.028 19.997,-10.361C19.832,-9.691 20.087,-8.908 19.851,-8.281C19.614,-7.656 19.103,-6.518 18.26,-5.986C17.42,-5.458 17.005,-5.321 17.182,-5.046C17.36,-4.771 17.635,-4.633 18.142,-5.046C18.654,-5.458 19.497,-6.381 19.832,-6.278C20.162,-6.183 19.652,-5.183 19.458,-5.005C19.265,-4.83 18.067,-3.281 17.652,-3.281C17.245,-3.281 17.457,-2.848 17.42,-2.731C17.377,-2.614 17.105,-2.324 17.303,-2.298C17.498,-2.281 19.125,-2.513 19.34,-2.636C19.557,-2.746 19.518,-2.281 19.302,-2.162C19.085,-2.044 18.575,-1.335 18.123,-1.121C17.675,-0.904 16.945,-0.55 16.715,-0.218C16.477,0.112 16.24,0.567 16.575,0.587C16.907,0.604 17.537,-0.08 17.615,0.112C17.689,0.309 17.319,0.838 17.498,1.097C17.675,1.354 18.085,1.157 18.223,1.486C18.359,1.819 18.223,1.684 18.027,2.077C17.835,2.459 16.587,3.447 15.715,3.889C15.433,3.472 14.774,2.539 14.265,2.051C13.66,1.471 13.46,0.879 13.207,-0.316C12.93,-1.652 11.57,-2.466 11.518,-2.501C11.462,-2.536 11.396,-2.542 11.335,-2.526C11.274,-2.511 11.223,-2.474 11.188,-2.416C11.163,-2.371 8.595,2.21 8.149,2.787C7.992,2.995 7.793,3.141 7.577,3.299C7.203,3.579 6.775,3.889 6.457,4.577C5.897,5.792 4.053,9.521 2.99,10.681C2.797,10.891 2.555,11.269 2.274,11.747C2.143,11.522 1.938,11.191 1.69,10.926C1.56,10.784 1.397,10.626 1.228,10.469C0.86,10.122 0.407,9.689 -0.002,9.127C-0.395,8.582 -0.737,7.997 -1.067,7.428C-1.247,7.12 -1.418,6.826 -1.587,6.554C-2.097,5.744 -4.96,3.338 -5.425,3.051C-5.553,2.972 -5.712,2.962 -5.867,3.026C-6.452,3.274 -7.085,4.639 -7.227,5.271C-7.345,5.804 -8.067,6.881 -8.835,8.029C-9.092,8.415 -9.365,8.814 -9.624,9.219C-10.689,10.862 -15.305,17.994 -15.305,17.994L-14.906,18.25C-14.906,18.25 -10.295,11.119 -9.228,9.474C-8.97,9.077 -8.702,8.676 -8.442,8.29C-7.615,7.056 -6.902,5.989 -6.765,5.374C-6.595,4.588 -5.904,3.46 -5.67,3.452C-5.234,3.723 -2.457,6.061 -1.99,6.803C-1.819,7.074 -1.65,7.36 -1.476,7.665C-1.141,8.244 -0.793,8.837 -0.382,9.402C0.053,9.999 0.525,10.449 0.899,10.808C1.075,10.969 1.223,11.114 1.345,11.247C1.695,11.625 1.968,12.159 2.005,12.239C1.95,12.338 1.895,12.444 1.841,12.544C1.662,12.593 -0.808,13.218 -1.817,12.492C-2.623,12.011 -3.505,12.516 -3.962,12.914C-3.055,12.569 -2.052,12.681 -2.135,13.154C-2.225,13.627 -1.992,14.009 -1.585,13.907C-1.173,13.814 -0.563,14.212 -0.662,14.491C-0.765,14.779 -0.657,15.04 -0.545,15.188C-0.428,15.344 -0.143,15.566 -0.38,15.836C-0.618,16.099 -0.854,15.871 -0.84,16.631C-0.832,17.391 -0.808,17.551 -0.893,17.699C-0.945,17.792 -1.029,18.371 -1.087,18.795C-1.25,19.174 -1.354,19.421 -1.377,19.471C-1.425,19.588 -1.373,19.726 -1.25,19.784C-1.221,19.794 -1.192,19.801 -1.163,19.801C-1.067,19.801 -0.98,19.747 -0.939,19.656C-0.912,19.584 2.248,12.184 3.335,11.004C4.649,9.569 6.864,4.821 6.885,4.774C7.152,4.194 7.512,3.934 7.854,3.681C8.087,3.513 8.33,3.332 8.522,3.077C8.933,2.537 10.943,-1.018 11.478,-1.964C11.835,-1.701 12.57,-1.072 12.75,-0.216C13.016,1.054 13.25,1.729 13.938,2.391C14.396,2.829 15.002,3.684 15.295,4.107C14.667,4.444 14.31,4.679 13.867,4.679C13.345,4.679 13.228,4.875 13.228,5.139C13.228,5.409 13.487,5.384 13.912,5.384C14.338,5.384 15.567,4.907 15.567,5.639C15.567,6.372 15.913,6.754 16,6.639C16.085,6.524 16.04,6.329 16.285,6.329C16.538,6.329 16.912,6.627 16.785,6.754C16.655,6.887 16.395,7.298 16.561,7.466C16.731,7.642 17.122,7.716 17.41,7.716C17.697,7.716 17.79,7.259 18.085,7.259C18.38,7.259 18.543,7.49 18.175,7.859C17.813,8.221 16.674,8.633 15.938,8.794C15.202,8.954 14.064,9.079 13.713,9.673C13.713,9.673 13.68,10.069 13.862,10.039C14.044,10.006 14.297,9.542 15.3,9.46C16.3,9.372 16.793,9.079 16.869,9.091C16.945,9.101 16.771,9.604 16.328,9.747C15.88,9.889 15.3,10.367 14.92,10.689C14.54,11.006 14.213,11.364 14.213,11.479C14.213,11.589 14.369,11.904 14.585,11.734C14.805,11.563 14.86,11.269 15.42,11.114C15.973,10.957 15.92,11.098 16.314,10.877C16.702,10.652 17.035,10.702 17.005,11.026C16.979,11.353 16.774,11.319 16.45,11.727C16.122,12.136 16,12.944 15.699,13.099C15.399,13.256 13.39,14.374 13.37,14.446C13.353,14.519 13.647,14.991 14.365,14.799C15.085,14.61 15.728,14.479 16.185,14.119C16.641,13.759 17.215,13.407 17.215,13.407C17.215,13.407 17.072,13.92 16.702,14.364C16.34,14.807 16,14.962 15.489,15.056C14.982,15.149 14.013,15.841 14.013,15.877C14.013,15.919 14.819,15.986 15.109,16.286C15.399,16.584 14.507,16.754 13.987,16.693C13.465,16.627 13.505,16.674 13.542,16.976C13.579,17.279 13.867,17.279 14.053,17.604C14.232,17.931 13.854,17.969 13.987,18.321C14.114,18.673 14.021,19.332 13.215,19.269C12.405,19.202 12.013,19.749 11.947,19.987C11.879,20.219 12.73,20.119 13.265,19.892C13.8,19.669 14.338,19.892 14.338,19.892C13.763,20.744 12.391,20.914 12.26,20.924C12.13,20.939 11.728,21.036 11.686,21.112C11.645,21.188 11.708,22.249 11.827,22.284C11.947,22.327 12.532,22.181 14.402,21.371C16.274,20.561 16.328,20.089 16.495,20.048C16.665,20.005 16.575,20.262 16.47,20.575C16.365,20.887 15.936,21.058 16.25,21.188C16.561,21.321 17.122,20.229 17.255,20.194C17.385,20.154 17.505,20.495 17.407,20.978C17.313,21.463 16.25,22.301 15.665,22.691C15.078,23.084 15.399,23.231 15.747,23.186C16.104,23.151 17.829,21.501 18,21.058C18.173,20.614 18.432,20.009 18.592,20.051C18.752,20.089 18.59,20.837 18.417,21.739C18.247,22.639 18.115,26.011 18.115,26.679C18.115,27.346 18.223,29.309 18.223,29.309L18.64,29.309C18.64,29.309 18.744,28.09 18.9,27.678C19.06,27.259 19.085,26.874 19.01,26.679C18.927,26.486 18.888,26.054 19.01,25.831C19.125,25.604 19.024,21.674 19.024,21.674C19.024,21.674 19.477,21.749 19.832,21.524C20.186,21.298 20.467,21.181 20.675,21.379C20.883,21.572 21.329,21.954 21.588,21.809C21.843,21.665 21.997,21.494 21.655,21.202C21.313,20.909 21.205,20.969 21.152,20.575C21.104,20.182 21.222,20.239 20.901,19.994C20.577,19.749 20.567,19.633 20.567,19.633C20.567,19.633 21.253,19.249 21.789,19.719C22.335,20.189 22.725,20.999 23.753,21.434C24.782,21.877 25.452,22.228 25.782,22.409C26.117,22.584 26.342,22.546 26.558,22.631C26.771,22.721 27.117,23.004 27.265,23.044C27.409,23.084 27.603,22.907 27.56,22.819C27.52,22.734 27.479,22.691 26.747,21.954C26.013,21.218 25.754,20.956 25.499,20.787C25.244,20.619 24.03,19.819 23.753,19.584C23.479,19.343 23.487,18.916 23.691,18.959C23.899,18.994 24.46,19.358 24.569,19.343C24.677,19.339 24.725,19.042 24.606,18.897C24.491,18.749 24.167,18.774 23.814,18.066C23.463,17.357 23.295,17.151 23.677,17.071C24.06,16.994 24.685,17.296 24.685,17.296C24.685,17.296 25.027,16.917 24.795,16.747C24.56,16.584 23.753,16.061 23.634,15.718C23.517,15.374 23.677,15.034 23.893,15.188C24.11,15.344 24.755,15.741 24.814,15.741C24.874,15.741 25.215,15.337 24.814,15.082C24.413,14.824 24.088,14.466 23.822,14.269C23.654,14.141 23.707,13.821 23.699,13.434C24.234,12.921 24.843,12.227 25.482,11.502C26.463,10.389 27.812,8.869 28.267,8.869C28.837,8.874 31.752,12.303 34.237,15.614C34.282,15.676 34.354,15.709 34.425,15.709C34.474,15.709 34.524,15.689 34.566,15.665C34.673,15.585 34.691,15.434 34.615,15.334C33.39,13.704 29.321,8.394 28.267,8.394C27.642,8.394 26.662,9.452 25.127,11.191C24.61,11.779 24.084,12.377 23.611,12.854C23.603,12.813 23.587,12.772 23.57,12.729C23.295,12.071 22.774,11.727 22.862,11.335C22.945,10.977 23.247,10.946 23.237,10.697C23.554,10.529 23.829,10.389 23.979,10.346C24.419,10.226 24.447,10.181 24.549,10.006C24.657,9.839 24.896,9.707 25.209,9.644C25.521,9.582 25.532,9.504 25.649,9.332C25.768,9.159 26.063,8.686 26.354,8.594C26.652,8.497 26.72,8.394 26.734,8.217C26.749,8.037 27.034,7.444 27.395,7.287C27.75,7.127 28.079,7.463 28.337,7.689C28.595,7.917 28.883,8.059 29.111,8.191C29.337,8.324 30.055,8.795 30.055,8.795C29.487,8.006 28.984,7.161 28.947,6.834C28.907,6.502 28.752,5.431 27.912,4.877C27.467,4.524 27.499,4.432 27.467,4.25C27.43,4.069 27.127,3.489 26.935,3.415C26.935,3.415 27.527,3.814 26.787,4.821C26.973,5.061 27.313,5.468 26.885,5.719C26.457,5.964 26.582,6.479 26.527,6.714C26.478,6.952 26.321,7.649 25.563,8.306C24.802,8.972 24.662,9.037 24.417,9.122C24.17,9.207 24.119,9.399 24.062,9.503C24.032,9.556 23.712,9.957 23.143,10.432C22.96,10.087 22.534,9.569 22.319,9.285C22.067,8.939 21.88,8.633 22.038,8.569C22.194,8.497 22.624,8.569 22.933,8.984C23.234,9.394 23.547,9.716 23.753,9.646C23.96,9.579 23.715,8.754 23.107,8.354C22.497,7.949 22.104,7.763 22.167,7.462C22.228,7.159 22.439,7.194 22.605,7.165C22.774,7.138 22.782,6.744 22.933,6.724C23.077,6.707 23.44,7.222 23.805,6.928C24.167,6.636 23.792,6.244 23.364,5.565C23.325,5.504 23.28,5.439 23.229,5.377C24.785,3.947 28.057,0.919 28.462,0.304C28.672,-0.005 28.819,-0.338 28.949,-0.621C29.237,-1.258 29.383,-1.498 29.695,-1.453C30.084,-1.064 32.622,1.54 33.222,3.497C33.89,5.71 36.419,9.562 37.268,10.529C37.537,10.837 38.142,11.723 38.843,12.75C39.077,13.096 39.322,13.455 39.569,13.816C38.915,13.428 36.399,11.924 35.01,10.862C33.402,9.624 33.25,9.149 32.969,7.843C32.692,6.546 32.191,5.95 31.737,5.713C31.287,5.479 31.475,5.374 31.447,5.104C31.414,4.837 31.055,4.426 31.055,4.426C31.055,4.426 31.49,4.7 31.727,4.864C31.962,5.029 32.204,5.332 32.638,5.468C33.064,5.606 33.505,5.979 33.986,6.513C33.912,6.176 33.427,5.479 33.207,5.274C32.987,5.069 33.024,5.006 32.469,4.069C31.914,3.122 29.833,1.54 29.532,1.28C29.232,1.021 29.042,1.046 29.115,1.447C29.662,2.662 28.918,3.963 28.918,3.963C30.497,4.042 30.555,5.002 30.564,5.271C30.575,5.542 30.527,5.851 31.307,6.614C32.087,7.379 32.02,8.732 32.015,9.117C32.01,9.504 32.225,10.037 32.407,10.334C32.59,10.641 33.972,13.713 34.887,13.949C34.688,13.652 33.585,11.452 33.678,10.811C35.422,12.214 38.138,13.604 39.622,13.888C40.889,15.737 42.247,17.631 42.964,18.101C43.004,18.131 43.05,18.144 43.095,18.144C43.175,18.144 43.247,18.104 43.292,18.034C43.364,17.926 43.334,17.781 43.225,17.707C42.643,17.324 41.477,15.741 40.362,14.133C42.157,12.101 44.185,9.992 44.622,9.83C45.014,9.994 46.691,11.669 48.441,13.576C47.724,13.317 46.965,12.989 46.327,12.42C45.967,11.915 45.384,11.491 45.25,11.312C45.114,11.131 44.614,10.961 44.614,10.961C44.614,10.961 44.902,11.247 44.824,11.794C45.149,12.151 45.429,12.242 45.632,12.599C45.832,12.959 46.035,13.181 46.035,13.181C46.012,12.862 46.035,12.772 46.035,12.772C46.035,12.772 46.599,12.837 46.864,13.062C47.052,13.214 47.867,13.59 48.68,13.837C50.192,15.499 51.714,17.289 52.475,18.391C52.517,18.459 52.594,18.494 52.666,18.494C52.716,18.494 52.762,18.482 52.802,18.451C52.907,18.379 52.934,18.231 52.864,18.127C52.225,17.199 50.962,15.667 49.487,14.024" style="fill-rule:nonzero;"/>
            </g>
            <g transform="matrix(1,0,0,1,424.098,678.626)">
                <path d="M0,-4.946C-0.59,-4.606 -0.417,-3.893 -0.489,-3.564C-0.565,-3.239 -0.777,-2.279 -1.828,-1.362C-2.883,-0.441 -3.07,-0.356 -3.415,-0.236C-3.755,-0.116 -3.822,0.147 -3.902,0.289C-3.979,0.426 -5.364,2.126 -7.725,3.192C-6.664,2.934 -4.627,1.631 -4.02,1.463C-3.412,1.292 -3.37,1.231 -3.227,0.996C-3.082,0.756 -2.752,0.571 -2.319,0.489C-1.885,0.407 -1.869,0.299 -1.707,0.059C-1.547,-0.181 -1.138,-0.834 -0.73,-0.966C-0.319,-1.098 -0.225,-1.241 -0.208,-1.486C-0.185,-1.734 0.21,-2.558 0.707,-2.774C1.202,-2.993 1.657,-2.528 2.011,-2.219C2.368,-1.903 2.77,-1.704 3.088,-1.521C3.398,-1.339 4.396,-0.683 4.396,-0.683C3.608,-1.778 2.911,-2.946 2.855,-3.401C2.8,-3.864 2.588,-5.341 1.425,-6.108C0.81,-6.596 0.853,-6.723 0.808,-6.975C0.753,-7.226 0.337,-8.031 0.078,-8.138C0.078,-8.138 0.895,-7.586 -0.132,-6.186C0.123,-5.856 0.598,-5.286 0,-4.946" style="fill-rule:nonzero;"/>
            </g>
            <g transform="matrix(1,0,0,1,445.697,675.984)">
                <path d="M0,1.561C-0.157,1.111 -0.234,1.055 -0.517,0.808C-0.798,0.564 -1.694,-0.367 -2.032,-0.964C-2.369,-1.556 -2.782,-1.907 -3.21,-1.964C-2.646,-1.212 -2.334,-0.427 -2.303,0.013C-2.09,0.338 -2.032,0.869 -2.032,0.869C-2.032,0.869 -1.908,0.64 -2.01,0.013C-1.92,0.328 -1.01,1.111 -0.827,1.168C-0.64,1.228 -0.617,1.338 -0.428,1.516C0.045,2.47 1.122,3.525 1.561,3.433C1.313,3.231 0.158,2.013 0,1.561" style="fill-rule:nonzero;"/>
            </g>
        </g>
    </g>
</svg>
