<svg width="353" height="353" viewBox="0 0 353 353" fill="none" xmlns="http://www.w3.org/2000/svg">
<g filter="url(#filter0_d_1_242)">
<path fill-rule="evenodd" clip-rule="evenodd" d="M27.2618 5.41919C16.2162 5.41919 7.26184 14.3735 7.26184 25.4192V323.419C7.26184 334.465 16.2161 343.419 27.2618 343.419H325.262C336.308 343.419 345.262 334.465 345.262 323.419V25.4192C345.262 14.3735 336.308 5.41919 325.262 5.41919H27.2618Z" fill="url(#paint0_linear_1_242)" fill-opacity="0.9"/>
<mask id="mask0_1_242" style="mask-type:luminance" maskUnits="userSpaceOnUse" x="7" y="5" width="339" height="339">
<path fill-rule="evenodd" clip-rule="evenodd" d="M27.2618 5.41919C16.2162 5.41919 7.26184 14.3735 7.26184 25.4192V323.419C7.26184 334.465 16.2161 343.419 27.2618 343.419H325.262C336.308 343.419 345.262 334.465 345.262 323.419V25.4192C345.262 14.3735 336.308 5.41919 325.262 5.41919H27.2618Z" fill="white"/>
</mask>
<g mask="url(#mask0_1_242)">
<g opacity="0.41644">
<g opacity="0.643003">
<path fill-rule="evenodd" clip-rule="evenodd" d="M238.135 304.264L200.177 247.298L162.219 304.264H238.135Z" fill="#7A9FBC"/>
<path fill-rule="evenodd" clip-rule="evenodd" d="M237.607 304.264H200.177V247.298L237.607 304.264Z" fill="#598CBD"/>
<path fill-rule="evenodd" clip-rule="evenodd" d="M200.177 247.298V264.608C199.781 265.913 199.352 267.187 197.758 267.187C194.667 267.187 196.985 262.053 194.153 262.407C191.693 262.714 187.875 267.827 184.888 269.979L200.177 247.298Z" fill="#C6D9E4"/>
<path fill-rule="evenodd" clip-rule="evenodd" d="M209.139 261.331C207.97 260.564 207.062 260.139 206.705 260.355C205.233 261.245 207.195 263.737 205.233 264.449C203.269 265.162 204.496 261.423 202.043 261.957C200.856 262.215 200.53 263.474 200.177 264.704V247.298L209.139 261.331Z" fill="#9EB9DD"/>
<path fill-rule="evenodd" clip-rule="evenodd" d="M159.366 316.26C145.948 304.379 134.612 294.023 120.512 277.992C116.389 273.304 110.951 266.162 107.31 265.466C97.534 263.598 88.7074 273.227 80.7423 282.43C72.0526 292.47 63.3628 302.51 54.673 312.55C70.0841 319.479 86.4226 314.494 102.39 315.205C119.063 315.948 135.423 322.946 152.068 324.711C154.51 324.97 157.146 325.031 159.168 322.76C161.191 320.488 161.989 314.97 160.073 312.46" fill="#CCEFEA"/>
<path fill-rule="evenodd" clip-rule="evenodd" d="M80.8634 282.288C88.5296 273.542 97.1017 264.404 106.337 265.292V315.067C105.097 314.949 103.855 314.856 102.611 314.801C86.5701 314.096 70.1557 319.042 54.673 312.168C63.4031 302.208 72.1333 292.248 80.8634 282.288Z" fill="#E2F8F7"/>
<path fill-rule="evenodd" clip-rule="evenodd" d="M184.888 290.55L149.567 237.276L114.245 290.55H184.888Z" fill="#7A9FBC"/>
<path fill-rule="evenodd" clip-rule="evenodd" d="M184.889 290.55H149.567V237.276L184.889 290.55Z" fill="#598CBD"/>
<path fill-rule="evenodd" clip-rule="evenodd" d="M149.567 237.276V253.379C149.198 254.593 148.799 255.778 147.314 255.778C144.437 255.778 146.595 251.002 143.958 251.331C141.668 251.617 138.113 256.373 135.333 258.375L149.567 237.276Z" fill="#C6D9E4"/>
<path fill-rule="evenodd" clip-rule="evenodd" d="M158.002 250.884C156.902 250.14 156.047 249.728 155.711 249.937C154.325 250.801 156.172 253.217 154.325 253.908C152.478 254.599 153.632 250.973 151.323 251.491C150.206 251.742 149.9 252.962 149.567 254.155V237.276L158.002 250.884Z" fill="#9EB9DD"/>
<path fill-rule="evenodd" clip-rule="evenodd" d="M113.191 343.824L68.9075 276.836L24.6234 343.824H113.191Z" fill="#7A9FBC"/>
<path fill-rule="evenodd" clip-rule="evenodd" d="M113.191 343.824H68.9072V276.836L113.191 343.824Z" fill="#598CBD"/>
<path fill-rule="evenodd" clip-rule="evenodd" d="M68.9071 276.836V297.366C68.4428 298.915 67.9404 300.425 66.0706 300.425C62.4476 300.425 65.1648 294.336 61.844 294.756C58.9601 295.121 54.4839 301.184 50.9827 303.737L68.9071 276.836Z" fill="#C6D9E4"/>
<path fill-rule="evenodd" clip-rule="evenodd" d="M79.9782 293.42C78.5342 292.514 77.4116 292.011 76.9709 292.267C75.1522 293.319 77.5767 296.264 75.1522 297.106C72.7272 297.947 74.2427 293.529 71.2117 294.16C69.7457 294.466 69.3437 295.953 68.9072 297.407V276.836L79.9782 293.42Z" fill="#9EB9DD"/>
<path fill-rule="evenodd" clip-rule="evenodd" d="M132.697 300.308C132.697 304.532 150.045 307.957 171.445 307.957C192.845 307.957 210.194 304.532 210.194 300.308C210.194 296.084 192.845 292.66 171.445 292.66C150.045 292.66 132.697 296.084 132.697 300.308Z" fill="#7BA0D1"/>
<path fill-rule="evenodd" clip-rule="evenodd" d="M210.194 299.517L171.445 217.232L132.697 299.517H210.194Z" fill="#7A9FBC"/>
<path fill-rule="evenodd" clip-rule="evenodd" d="M210.193 299.517H171.709V217.232L210.193 299.517Z" fill="#598CBD"/>
<path fill-rule="evenodd" clip-rule="evenodd" d="M170.654 217.232V242.594C170.259 244.506 169.83 246.372 168.235 246.372C165.145 246.372 167.462 238.85 164.63 239.369C162.17 239.819 158.352 247.309 155.366 250.463L170.654 217.232Z" fill="#DEFAFF"/>
<path fill-rule="evenodd" clip-rule="evenodd" d="M181.198 237.644C179.96 236.529 178.998 235.91 178.62 236.225C177.061 237.519 179.14 241.144 177.061 242.18C174.983 243.216 176.282 237.778 173.684 238.555C172.427 238.931 172.083 240.761 171.709 242.551V217.232L181.198 237.644Z" fill="#BCD2DF"/>
<path fill-rule="evenodd" clip-rule="evenodd" d="M219.77 309.999C204.691 296.751 191.953 285.204 176.107 267.328C171.474 262.101 165.363 254.138 161.272 253.362C150.286 251.278 140.367 262.015 131.416 272.277C121.651 283.472 111.885 294.667 102.12 305.863C119.439 313.588 137.799 308.029 155.742 308.823C174.479 309.651 192.864 317.455 211.569 319.422C214.313 319.711 217.276 319.779 219.548 317.246C221.82 314.713 222.718 308.56 220.565 305.762" fill="#E2F8F7"/>
<path fill-rule="evenodd" clip-rule="evenodd" d="M131.517 272.288C140.122 262.449 149.744 252.169 160.111 253.168V309.165C158.718 309.032 157.324 308.928 155.928 308.866C137.923 308.072 119.499 313.636 102.12 305.904C111.919 294.699 121.718 283.493 131.517 272.288Z" fill="#CCEFEA"/>
<path fill-rule="evenodd" clip-rule="evenodd" d="M266.385 315.733C252.967 303.851 241.631 293.496 227.531 277.464C223.408 272.776 217.97 265.635 214.33 264.939C204.553 263.07 195.727 272.7 187.761 281.902C179.072 291.943 170.382 301.983 161.692 312.023C177.103 318.952 193.442 313.966 209.409 314.678C226.082 315.42 242.442 322.419 259.088 324.184C261.529 324.442 264.165 324.504 266.188 322.232C268.21 319.961 269.009 314.442 267.093 311.933" fill="#E2F8F7"/>
<path fill-rule="evenodd" clip-rule="evenodd" d="M187.883 281.761C195.549 273.014 204.121 263.877 213.357 264.764V314.54C212.116 314.421 210.874 314.329 209.63 314.274C193.589 313.568 177.175 318.514 161.692 311.641C170.422 301.681 179.152 291.721 187.883 281.761Z" fill="#CCEFEA"/>
<path fill-rule="evenodd" clip-rule="evenodd" d="M159.25 265.442C158.347 265.312 157.642 264.418 156.732 264.493C156.134 264.543 155.664 265.004 155.097 265.197C154.046 265.553 152.902 264.935 151.794 265.037C150.692 265.139 149.669 265.949 148.587 265.721C148.13 265.625 147.736 265.353 147.304 265.182C146.115 264.709 144.749 265.027 143.493 264.768C142.475 264.558 141.462 263.97 140.463 264.252C139.935 264.401 139.51 264.775 139.106 265.138C138.764 265.444 138.422 265.751 138.08 266.058C138.029 266.104 137.976 266.155 137.969 266.222C137.959 266.34 138.098 266.413 138.214 266.451C141.538 267.535 145.158 266.609 148.665 266.609C151.537 266.61 154.373 267.239 157.243 267.335C157.75 267.352 158.276 267.349 158.742 267.153C159.207 266.957 159.601 266.519 159.583 266.027C159.575 265.816 159.487 265.601 159.317 265.469" fill="#CCEFEA"/>
<path fill-rule="evenodd" clip-rule="evenodd" d="M214.938 342.505C214.938 346.438 231.342 349.626 251.578 349.626C271.813 349.626 288.217 346.438 288.217 342.505C288.217 338.573 271.813 335.385 251.578 335.385C231.342 335.385 214.938 338.573 214.938 342.505Z" fill="#7BA0D1"/>
<path fill-rule="evenodd" clip-rule="evenodd" d="M288.217 342.769L251.578 265.232L214.938 342.769H288.217Z" fill="#7A9FBC"/>
<path fill-rule="evenodd" clip-rule="evenodd" d="M287.163 342.769H251.314V265.232L287.163 342.769Z" fill="#598CBD"/>
<path fill-rule="evenodd" clip-rule="evenodd" d="M251.314 265.232V289.385C250.932 291.207 250.519 292.984 248.979 292.984C245.995 292.984 248.233 285.82 245.498 286.314C243.123 286.743 239.436 293.876 236.553 296.88L251.314 265.232Z" fill="#DEFAFF"/>
<path fill-rule="evenodd" clip-rule="evenodd" d="M260.277 284.367C259.107 283.322 258.199 282.742 257.842 283.037C256.37 284.251 258.332 287.649 256.37 288.62C254.407 289.591 255.634 284.493 253.18 285.222C251.993 285.574 251.668 287.29 251.314 288.968V265.232L260.277 284.367Z" fill="#BCD2DF"/>
<path fill-rule="evenodd" clip-rule="evenodd" d="M164.328 347.78C164.328 351.713 180.732 354.901 200.968 354.901C221.203 354.901 237.607 351.713 237.607 347.78C237.607 343.848 221.203 340.66 200.968 340.66C180.732 340.66 164.328 343.848 164.328 347.78Z" fill="#7BA0D1"/>
<path fill-rule="evenodd" clip-rule="evenodd" d="M237.607 348.044L200.968 270.506L164.328 348.044H237.607Z" fill="#98B4DB"/>
<path fill-rule="evenodd" clip-rule="evenodd" d="M237.607 348.044H201.758V270.506L237.607 348.044Z" fill="#598CBD"/>
<path fill-rule="evenodd" clip-rule="evenodd" d="M201.759 270.506V294.66C201.377 296.481 200.963 298.258 199.423 298.258C196.44 298.258 198.677 291.095 195.942 291.589C193.567 292.018 189.881 299.151 186.998 302.154L201.759 270.506Z" fill="#DEFAFF"/>
<path fill-rule="evenodd" clip-rule="evenodd" d="M210.721 289.642C209.551 288.597 208.643 288.016 208.286 288.311C206.814 289.525 208.776 292.924 206.814 293.895C204.851 294.866 206.078 289.768 203.624 290.496C202.437 290.848 202.112 292.565 201.758 294.242V270.506L210.721 289.642Z" fill="#BCD2DF"/>
<path fill-rule="evenodd" clip-rule="evenodd" d="M136.387 298.462C136.387 300.793 152.202 302.682 171.709 302.682C191.216 302.682 207.03 300.793 207.03 298.462C207.03 296.132 191.216 294.243 171.709 294.243C152.202 294.243 136.387 296.132 136.387 298.462Z" fill="#9CB8DC"/>
<path fill-rule="evenodd" clip-rule="evenodd" d="M207.03 298.462L171.709 255.21L136.387 298.462H207.03Z" fill="#7A9FBC"/>
<path fill-rule="evenodd" clip-rule="evenodd" d="M207.558 298.462H172.236V255.21L207.558 298.462Z" fill="#598CBD"/>
<path fill-rule="evenodd" clip-rule="evenodd" d="M171.182 255.21V273.742C170.733 274.561 170.061 275.184 168.896 275.249C165.293 275.45 168.596 269.12 166.394 269.12C164.192 269.12 163.892 273.943 161.49 274.144C159.335 274.324 160.883 270.787 159.056 270.783L171.182 255.21Z" fill="#F7FEFF"/>
<path fill-rule="evenodd" clip-rule="evenodd" d="M183.307 269.14C182.557 269.193 182.015 269.432 181.934 269.99C181.628 272.095 183.259 274.502 180.609 275.203C177.959 275.905 176.737 269.088 174.596 269.289C173.148 269.424 173.191 271.991 172.236 273.699V255.21L183.307 269.14Z" fill="#D6E4EC"/>
<path fill-rule="evenodd" clip-rule="evenodd" d="M6.6991 349.099C6.6991 352.304 36.3217 354.901 72.8618 354.901C84.4024 354.901 95.253 354.642 104.698 354.186C115.957 354.964 130.167 355.428 145.613 355.428C182.153 355.428 211.775 352.831 211.775 349.626C211.775 346.422 182.153 343.824 145.613 343.824C134.072 343.824 123.221 344.083 113.776 344.539C102.517 343.761 88.3074 343.297 72.8618 343.297C36.3217 343.297 6.6991 345.895 6.6991 349.099ZM211.248 352.264C211.248 355.468 240.871 358.066 277.411 358.066C313.95 358.066 343.572 355.468 343.572 352.264C343.572 349.06 313.95 346.462 277.411 346.462C240.871 346.462 211.248 349.06 211.248 352.264Z" fill="#9CB8DC"/>
<path fill-rule="evenodd" clip-rule="evenodd" d="M341.991 353.319L284 282.638L226.009 353.319H341.991Z" fill="#7A9FBC"/>
<path fill-rule="evenodd" clip-rule="evenodd" d="M342.518 353.319H284.527V282.638L342.518 353.319Z" fill="#598CBD"/>
<path fill-rule="evenodd" clip-rule="evenodd" d="M284.527 282.638V312.387C283.766 313.701 282.627 314.702 280.651 314.806C274.542 315.129 280.142 304.967 276.409 304.967C272.675 304.967 272.166 312.71 268.093 313.032C264.439 313.321 267.064 307.643 263.967 307.636L284.527 282.638Z" fill="#F7FEFF"/>
<path fill-rule="evenodd" clip-rule="evenodd" d="M302.979 304.999C301.73 305.084 300.826 305.468 300.691 306.364C300.181 309.744 302.899 313.606 298.483 314.732C294.066 315.859 292.028 304.916 288.461 305.238C286.048 305.455 286.12 309.575 284.527 312.318V282.638L302.979 304.999Z" fill="#D6E4EC"/>
<path fill-rule="evenodd" clip-rule="evenodd" d="M254.26 342.634C240.842 330.752 229.506 320.397 215.406 304.365C211.283 299.677 205.845 292.535 202.205 291.84C192.428 289.971 183.602 299.6 175.636 308.803C166.947 318.843 158.257 328.884 149.567 338.924C164.978 345.852 181.317 340.867 197.284 341.578C213.957 342.321 230.317 349.32 246.963 351.084C249.404 351.343 252.04 351.404 254.063 349.133C256.085 346.861 256.884 341.343 254.968 338.833" fill="#E2F8F7"/>
<path fill-rule="evenodd" clip-rule="evenodd" d="M175.758 308.661C183.424 299.915 191.996 290.777 201.232 291.665V341.44C199.991 341.322 198.749 341.229 197.505 341.175C181.464 340.469 165.05 345.415 149.567 338.541C158.297 328.581 167.027 318.621 175.758 308.661Z" fill="#CCEFEA"/>
<path fill-rule="evenodd" clip-rule="evenodd" d="M93.6851 303.209C93.6851 305.831 110.916 307.957 132.17 307.957C153.424 307.957 170.655 305.831 170.655 303.209C170.655 300.587 153.424 298.462 132.17 298.462C110.916 298.462 93.6851 300.587 93.6851 303.209Z" fill="#98B4DB"/>
<path fill-rule="evenodd" clip-rule="evenodd" d="M170.655 302.682L132.17 252.045L93.6851 302.682H170.655Z" fill="#7A9FBC"/>
<path fill-rule="evenodd" clip-rule="evenodd" d="M170.127 302.682H132.17V252.045L170.127 302.682Z" fill="#598CBD"/>
<path fill-rule="evenodd" clip-rule="evenodd" d="M132.17 252.045V268.148C131.774 269.362 131.346 270.547 129.751 270.547C126.66 270.547 128.978 265.771 126.145 266.1C123.686 266.386 119.867 271.142 116.881 273.144L132.17 252.045Z" fill="#DEFAFF"/>
<path fill-rule="evenodd" clip-rule="evenodd" d="M141.132 264.802C139.963 264.106 139.055 263.719 138.697 263.915C137.225 264.725 139.188 266.99 137.225 267.638C135.262 268.285 136.489 264.886 134.036 265.372C132.848 265.607 132.523 266.751 132.17 267.869V252.045L141.132 264.802Z" fill="#BCD2DF"/>
<path fill-rule="evenodd" clip-rule="evenodd" d="M272.929 350.154L226.273 287.913L179.617 350.154H272.929Z" fill="#7A9FBC"/>
<path fill-rule="evenodd" clip-rule="evenodd" d="M273.456 350.154H226.536V287.913L273.456 350.154Z" fill="#598CBD"/>
<path fill-rule="evenodd" clip-rule="evenodd" d="M226.536 287.913V307.236C226.045 308.693 225.513 310.115 223.533 310.115C219.697 310.115 222.573 304.384 219.058 304.779C216.004 305.122 211.264 310.829 207.557 313.231L226.536 287.913Z" fill="#DEFAFF"/>
<path fill-rule="evenodd" clip-rule="evenodd" d="M238.135 303.221C236.622 302.385 235.447 301.921 234.984 302.157C233.079 303.128 235.619 305.847 233.079 306.624C230.539 307.401 232.126 303.322 228.951 303.905C227.415 304.187 226.994 305.559 226.536 306.902V287.913L238.135 303.221Z" fill="#BCD2DF"/>
<path fill-rule="evenodd" clip-rule="evenodd" d="M166.437 327.473L134.279 278.419L102.12 327.473H166.437Z" fill="#7A9FBC"/>
<path fill-rule="evenodd" clip-rule="evenodd" d="M166.964 327.473H134.806V278.419L166.964 327.473Z" fill="#598CBD"/>
<path fill-rule="evenodd" clip-rule="evenodd" d="M134.278 278.419V293.716C133.95 294.869 133.596 295.995 132.276 295.995C129.719 295.995 131.637 291.458 129.292 291.771C127.257 292.042 124.097 296.56 121.626 298.462L134.278 278.419Z" fill="#C6D9E4"/>
<path fill-rule="evenodd" clip-rule="evenodd" d="M142.713 290.325C141.682 289.675 140.88 289.314 140.565 289.497C139.266 290.253 140.998 292.367 139.266 292.971C137.534 293.576 138.617 290.403 136.452 290.856C135.405 291.076 135.117 292.143 134.806 293.188V278.419L142.713 290.325Z" fill="#9EB9DD"/>
<path fill-rule="evenodd" clip-rule="evenodd" d="M174.283 309.242C168.821 305.602 163.36 301.963 157.898 298.323C154.731 296.213 151.38 294.036 147.598 293.749C141.434 293.28 136.142 297.843 131.628 302.112C126.009 307.425 120.391 312.738 114.772 318.051C117.073 319.757 120.023 320.229 122.853 320.59C137.101 322.409 151.54 322.686 165.846 321.417C167.709 321.251 169.621 321.045 171.287 320.186C172.953 319.326 174.342 317.66 174.345 315.769C174.348 313.374 172.231 310.938 173.366 308.836" fill="#E2F8F7"/>
<path fill-rule="evenodd" clip-rule="evenodd" d="M131.587 302.112C136.075 297.856 141.335 293.309 147.458 293.744V322.198C139.228 322.172 130.999 321.639 122.834 320.594C120.01 320.233 117.067 319.76 114.772 318.054C120.377 312.74 125.982 307.426 131.587 302.112Z" fill="#CCEFEA"/>
<path fill-rule="evenodd" clip-rule="evenodd" d="M163.274 349.626L105.283 278.946L47.2921 349.626H163.274Z" fill="#7A9FBC"/>
<path fill-rule="evenodd" clip-rule="evenodd" d="M163.274 349.626H105.283V278.946L163.274 349.626Z" fill="#598CBD"/>
<path fill-rule="evenodd" clip-rule="evenodd" d="M105.283 278.946V308.695C104.522 310.009 103.383 311.01 101.407 311.114C95.298 311.437 100.898 301.275 97.1646 301.275C93.431 301.275 92.9219 309.017 88.849 309.34C85.1948 309.629 87.8204 303.95 84.7227 303.944L105.283 278.946Z" fill="#F7FEFF"/>
<path fill-rule="evenodd" clip-rule="evenodd" d="M123.735 301.307C122.486 301.392 121.582 301.776 121.447 302.672C120.937 306.051 123.655 309.914 119.239 311.04C114.822 312.167 112.784 301.224 109.217 301.546C106.804 301.763 106.876 305.883 105.283 308.626V278.946L123.735 301.307Z" fill="#D6E4EC"/>
<path fill-rule="evenodd" clip-rule="evenodd" d="M226.536 350.154L168.546 279.474L110.555 350.154H226.536Z" fill="#7A9FBC"/>
<path fill-rule="evenodd" clip-rule="evenodd" d="M227.063 350.154H169.073V279.474L227.063 350.154Z" fill="#598CBD"/>
<path fill-rule="evenodd" clip-rule="evenodd" d="M169.073 279.474V309.222C168.312 310.536 167.173 311.537 165.197 311.641C159.088 311.964 164.688 301.802 160.954 301.802C157.221 301.802 156.712 309.545 152.639 309.868C148.985 310.157 151.61 304.478 148.512 304.471L169.073 279.474Z" fill="#F7FEFF"/>
<path fill-rule="evenodd" clip-rule="evenodd" d="M187.524 301.835C186.275 301.919 185.372 302.303 185.237 303.199C184.727 306.579 187.445 310.441 183.029 311.568C178.612 312.694 176.574 301.751 173.007 302.073C170.593 302.291 170.665 306.411 169.073 309.154V279.474L187.524 301.835Z" fill="#D6E4EC"/>
<path fill-rule="evenodd" clip-rule="evenodd" d="M246.569 256.042C246.569 254.171 248.519 252.654 250.923 252.654C251.409 252.654 251.874 252.719 252.311 252.833C252.393 249.764 255.359 247.298 259.008 247.298C262.481 247.298 265.336 249.53 265.676 252.39C266.109 252.251 266.583 252.173 267.081 252.173C268.636 252.173 269.962 252.925 270.498 253.987C270.807 253.919 271.133 253.88 271.471 253.88C273.441 253.88 275.038 255.122 275.038 256.655C275.038 258.187 273.441 259.43 271.471 259.43C271.388 259.43 271.308 259.424 271.227 259.42C271.162 259.426 271.097 259.43 271.03 259.43H250.441C250.189 259.43 249.95 259.382 249.729 259.297C247.906 258.893 246.569 257.59 246.569 256.042Z" fill="white"/>
<path fill-rule="evenodd" clip-rule="evenodd" d="M210.885 243.596C208.73 243.473 207.03 242.066 207.03 240.348C207.03 238.743 208.513 237.41 210.464 237.14C210.636 236.152 211.685 235.391 212.956 235.391C213.149 235.391 213.337 235.409 213.517 235.443C214.194 232.861 216.677 230.947 219.639 230.947C222.884 230.947 225.556 233.246 225.905 236.202C226.036 236.191 226.168 236.185 226.302 236.185C228.142 236.185 229.668 237.257 229.984 238.669C231.597 238.78 232.863 239.84 232.863 241.132C232.863 242.498 231.448 243.606 229.702 243.606C229.629 243.606 229.558 243.601 229.486 243.597C229.429 243.603 229.371 243.606 229.312 243.606H211.069C211.04 243.606 211.013 243.603 210.985 243.602C210.976 243.601 210.968 243.601 210.959 243.6C210.935 243.599 210.909 243.599 210.885 243.596Z" fill="white"/>
<path fill-rule="evenodd" clip-rule="evenodd" d="M108.374 249.926C106.351 249.808 104.756 248.46 104.756 246.813C104.756 245.275 106.147 243.998 107.979 243.739C108.141 242.792 109.125 242.062 110.319 242.062C110.5 242.062 110.676 242.081 110.845 242.112C111.481 239.639 113.813 237.804 116.593 237.804C119.639 237.804 122.147 240.007 122.475 242.84C122.598 242.829 122.722 242.823 122.848 242.823C124.575 242.823 126.008 243.851 126.304 245.204C127.819 245.311 129.007 246.326 129.007 247.564C129.007 248.874 127.678 249.935 126.04 249.935C125.971 249.935 125.904 249.931 125.837 249.927C125.783 249.933 125.728 249.935 125.673 249.935H108.546C108.52 249.935 108.494 249.933 108.468 249.931C108.46 249.931 108.452 249.931 108.444 249.93C108.421 249.929 108.397 249.929 108.374 249.926Z" fill="white"/>
</g>
</g>
</g>
<defs>
<filter id="filter0_d_1_242" x="0.261841" y="0.419189" width="352" height="352" filterUnits="userSpaceOnUse" color-interpolation-filters="sRGB">
<feFlood flood-opacity="0" result="BackgroundImageFix"/>
<feColorMatrix in="SourceAlpha" type="matrix" values="0 0 0 0 0 0 0 0 0 0 0 0 0 0 0 0 0 0 127 0" result="hardAlpha"/>
<feOffset dy="2"/>
<feGaussianBlur stdDeviation="3.5"/>
<feColorMatrix type="matrix" values="0 0 0 0 0 0 0 0 0 0 0 0 0 0 0 0 0 0 0.15 0"/>
<feBlend mode="normal" in2="BackgroundImageFix" result="effect1_dropShadow_1_242"/>
<feBlend mode="normal" in="SourceGraphic" in2="effect1_dropShadow_1_242" result="shape"/>
</filter>
<linearGradient id="paint0_linear_1_242" x1="24.8052" y1="56.5221" x2="24.8052" y2="359.435" gradientUnits="userSpaceOnUse">
<stop stop-color="#8DC1E9"/>
<stop offset="1" stop-color="white"/>
</linearGradient>
<clipPath id="clip0_1_242">
<rect width="117.737" height="25.35" fill="white" transform="translate(119.365 305.113)"/>
</clipPath>
</defs>
</svg>
